<mxfile host="drawio-plugin" modified="2022-12-13T03:19:05.792Z" agent="5.0 (Macintosh; Intel Mac OS X 10_15_7) AppleWebKit/537.36 (KHTML, like Gecko) Chrome/104.0.5112.102 Safari/537.36" etag="GW94GdmjsatY6LUpawgl" version="20.5.3" type="embed"><diagram id="ycGnjYmzJwle-k11gkEK" name="第 1 页"><mxGraphModel dx="1612" dy="1128" grid="1" gridSize="10" guides="1" tooltips="1" connect="1" arrows="1" fold="1" page="0" pageScale="1" pageWidth="827" pageHeight="1169" background="none" math="0" shadow="0"><root><mxCell id="0"/><mxCell id="1" parent="0"/><object label="%nodeDesc%" placeholders="1" nodeDesc="创建组织" shapeType="NODE" id="eHyHf9wSJUVoO2XgXbOT-1"><mxCell style="rounded=0;whiteSpace=wrap;html=1;shadow=0;glass=0;sketch=0;fillStyle=auto;strokeWidth=1;metaEdit=1;resizable=1;rotatable=0;snapToPoint=0;connectable=1;absoluteArcSize=0;noLabel=0;labelPadding=0;allowArrows=1;recursiveResize=1;expand=1;editable=1;movable=1;deletable=1;fixDash=0;collapsible=0;portConstraintRotation=0;points=[[0,0.5,0,0,0],[1,0.5,0,0,0]];backgroundOutline=0;resizeHeight=1;resizeWidth=1;" parent="1" vertex="1"><mxGeometry x="-370" y="-50" width="135" height="40" as="geometry"/></mxCell></object><object label="《%shapeType%》&#10;%className%&#10;%classDesc%" placeholders="1" shapeType="COMMAND" classPackage="create" classDesc="创建组织" className="OrganizationCreate" cmdType="ADD" id="eHyHf9wSJUVoO2XgXbOT-2"><mxCell style="swimlane;fontStyle=1;align=center;verticalAlign=top;childLayout=stackLayout;horizontal=1;startSize=60;horizontalStack=0;resizeParent=1;resizeParentMax=0;resizeLast=0;collapsible=1;marginBottom=0;fixDash=1;container=1;enumerate=0;treeMoving=1;swimlaneBody=1;fillOpacity=100;strokeOpacity=100;overflow=visible;rounded=0;swimlaneLine=1;sketch=0;shadow=0;arcSize=9;strokeWidth=1;fillStyle=auto;swimlaneFillColor=default;metaEdit=1;labelPadding=0;cloneable=1;separatorColor=none;swimlaneHead=1;noLabel=0;direction=east;portConstraint=none;portConstraintRotation=0;rotation=0;connectable=0;snapToPoint=0;perimeter=rectanglePerimeter;dropTarget=1;expand=1;part=1;backgroundOutline=1;movableLabel=1;autosize=1;fixedWidth=1;resizable=1;resizeWidth=0;resizeHeight=0;rotatable=1;treeFolding=0;pointerEvents=1;moveCells=0;comic=0;enumerateValue=123;allowArrows=0;fontFamily=Helvetica;fontSize=13;fillColor=#fff2cc;strokeColor=#d6b656;" parent="1" vertex="1"><mxGeometry x="-477" y="40" width="350" height="242" as="geometry"><mxRectangle x="-950" y="80" width="350" height="70" as="alternateBounds"/></mxGeometry></mxCell></object><object label="%fieldModify% %fieldName%: %fieldType%    #%fieldDesc%" placeholders="1" shapeType="FIELD" fieldName="name" fieldType="String" fieldModify="-" fieldDesc="组织名称" id="eHyHf9wSJUVoO2XgXbOT-3"><mxCell style="text;strokeColor=none;fillColor=none;align=left;verticalAlign=top;spacingLeft=4;spacingRight=4;overflow=hidden;rotatable=0;points=[];portConstraint=none;metaEdit=1;cloneable=1;rotation=0;connectable=1;container=0;dropTarget=1;imageAspect=1;absoluteArcSize=0;portConstraintRotation=0;snapToPoint=0;fixDash=0;pointerEvents=0;enumerate=0;resizeHeight=1;resizeWidth=1;autosize=1;part=1;movable=1;rounded=0;fontFamily=Helvetica;fontSize=13;fontColor=default;comic=1;" parent="eHyHf9wSJUVoO2XgXbOT-2" vertex="1"><mxGeometry y="60" width="350" height="24" as="geometry"/></mxCell></object><object label="%fieldModify% %fieldName%: %fieldType%    #%fieldDesc%" placeholders="1" shapeType="FIELD" fieldName="description" fieldType="String" fieldModify="-" fieldDesc="描述信息" id="eHyHf9wSJUVoO2XgXbOT-4"><mxCell style="text;strokeColor=none;fillColor=none;align=left;verticalAlign=top;spacingLeft=4;spacingRight=4;overflow=hidden;rotatable=0;points=[];portConstraint=none;metaEdit=1;cloneable=1;rotation=0;connectable=1;container=0;dropTarget=1;imageAspect=1;absoluteArcSize=0;portConstraintRotation=0;snapToPoint=0;fixDash=0;pointerEvents=0;enumerate=0;resizeHeight=1;resizeWidth=1;autosize=1;part=1;movable=1;rounded=0;fontFamily=Helvetica;fontSize=13;fontColor=default;comic=1;" parent="eHyHf9wSJUVoO2XgXbOT-2" vertex="1"><mxGeometry y="84" width="350" height="24" as="geometry"/></mxCell></object><object label="%fieldModify% %fieldName%: %fieldType%    #%fieldDesc%" placeholders="1" shapeType="FIELD" fieldName="managerId" fieldType="Long" fieldModify="-" fieldDesc="组织管理员ID" id="eHyHf9wSJUVoO2XgXbOT-5"><mxCell style="text;strokeColor=none;fillColor=none;align=left;verticalAlign=top;spacingLeft=4;spacingRight=4;overflow=hidden;rotatable=0;points=[];portConstraint=none;metaEdit=1;cloneable=1;rotation=0;connectable=1;container=0;dropTarget=1;imageAspect=1;absoluteArcSize=0;portConstraintRotation=0;snapToPoint=0;fixDash=0;pointerEvents=0;enumerate=0;resizeHeight=1;resizeWidth=1;autosize=1;part=1;movable=1;rounded=0;fontFamily=Helvetica;fontSize=13;fontColor=default;comic=1;" parent="eHyHf9wSJUVoO2XgXbOT-2" vertex="1"><mxGeometry y="108" width="350" height="24" as="geometry"/></mxCell></object><object label="《%shapeType%》" placeholders="1" shapeType="RULE_LIST" id="eHyHf9wSJUVoO2XgXbOT-6"><mxCell style="swimlane;fontStyle=1;align=center;verticalAlign=top;childLayout=stackLayout;horizontal=1;startSize=28;horizontalStack=0;resizeParent=1;resizeParentMax=0;resizeLast=0;collapsible=1;marginBottom=0;fixDash=1;container=1;enumerate=0;treeMoving=1;swimlaneBody=1;fillOpacity=100;strokeOpacity=100;overflow=visible;rounded=0;swimlaneLine=1;sketch=0;shadow=0;arcSize=19;strokeWidth=1;fillStyle=auto;swimlaneFillColor=none;metaEdit=1;labelPadding=0;cloneable=1;separatorColor=none;swimlaneHead=1;noLabel=0;direction=east;portConstraint=none;portConstraintRotation=0;rotation=0;connectable=0;snapToPoint=0;perimeter=rectanglePerimeter;dropTarget=1;expand=1;part=1;backgroundOutline=1;movableLabel=1;autosize=1;fixedWidth=0;resizable=1;resizeWidth=0;resizeHeight=0;rotatable=1;treeFolding=0;pointerEvents=1;moveCells=0;comic=0;enumerateValue=123;allowArrows=0;fontFamily=Helvetica;fontSize=13;glass=0;editable=1;movable=1;deletable=1;fillColor=none;strokeColor=#b85450;gradientColor=none;" parent="eHyHf9wSJUVoO2XgXbOT-2" vertex="1"><mxGeometry y="132" width="350" height="58" as="geometry"><mxRectangle y="256" width="420" height="50" as="alternateBounds"/></mxGeometry></mxCell></object><object label="rule: %ruleDesc%" placeholders="1" shapeType="RULE_ITEM" ruleDesc="组织名称唯一" id="eHyHf9wSJUVoO2XgXbOT-7"><mxCell style="text;strokeColor=none;fillColor=none;align=left;verticalAlign=top;spacingLeft=4;spacingRight=4;overflow=hidden;rotatable=0;points=[];portConstraint=none;metaEdit=1;cloneable=1;rotation=0;connectable=1;container=0;dropTarget=1;imageAspect=1;absoluteArcSize=0;portConstraintRotation=0;snapToPoint=0;fixDash=0;pointerEvents=0;enumerate=0;resizeHeight=1;resizeWidth=1;autosize=1;part=1;movable=1;rounded=0;fontFamily=Helvetica;fontSize=13;fontColor=default;" parent="eHyHf9wSJUVoO2XgXbOT-6" vertex="1"><mxGeometry y="28" width="350" height="30" as="geometry"/></mxCell></object><object label="《%shapeType%》" placeholders="1" shapeType="EVENT" id="eHyHf9wSJUVoO2XgXbOT-8"><mxCell style="swimlane;fontStyle=1;align=center;verticalAlign=top;childLayout=stackLayout;horizontal=1;startSize=28;horizontalStack=0;resizeParent=1;resizeParentMax=0;resizeLast=0;collapsible=1;marginBottom=0;fixDash=1;container=1;enumerate=0;treeMoving=1;swimlaneBody=1;fillOpacity=100;strokeOpacity=100;overflow=visible;rounded=0;swimlaneLine=1;sketch=0;shadow=0;arcSize=19;strokeWidth=1;fillStyle=auto;swimlaneFillColor=none;metaEdit=1;labelPadding=0;cloneable=1;separatorColor=none;swimlaneHead=1;noLabel=0;direction=east;portConstraint=none;portConstraintRotation=0;rotation=0;connectable=0;snapToPoint=0;perimeter=rectanglePerimeter;dropTarget=1;expand=1;part=1;backgroundOutline=1;movableLabel=1;autosize=1;fixedWidth=0;resizable=1;resizeWidth=0;resizeHeight=0;rotatable=1;treeFolding=0;pointerEvents=1;moveCells=0;comic=0;enumerateValue=123;allowArrows=0;fontFamily=Helvetica;fontSize=13;glass=0;editable=1;movable=1;deletable=1;fillColor=none;strokeColor=#6c8ebf;gradientColor=#7ea6e0;" parent="eHyHf9wSJUVoO2XgXbOT-2" vertex="1"><mxGeometry y="190" width="350" height="52" as="geometry"><mxRectangle y="204" width="420" height="50" as="alternateBounds"/></mxGeometry></mxCell></object><object label="%nodeDesc%" placeholders="1" nodeDesc="更新组织信息" shapeType="NODE" id="eHyHf9wSJUVoO2XgXbOT-9"><mxCell style="rounded=0;whiteSpace=wrap;html=1;shadow=0;glass=0;sketch=0;fillStyle=auto;strokeWidth=1;metaEdit=1;resizable=1;rotatable=0;snapToPoint=0;connectable=1;absoluteArcSize=0;noLabel=0;labelPadding=0;allowArrows=1;recursiveResize=1;expand=1;editable=1;movable=1;deletable=1;fixDash=0;collapsible=0;portConstraintRotation=0;points=[[0,0.5,0,0,0],[1,0.5,0,0,0]];backgroundOutline=0;resizeHeight=1;resizeWidth=1;" parent="1" vertex="1"><mxGeometry x="10" y="-50" width="135" height="40" as="geometry"/></mxCell></object><object label="《%shapeType%》&#10;%className%&#10;%classDesc%" placeholders="1" shapeType="COMMAND" classPackage="update" classDesc="更新组织信息" className="OrganizationUpdate" cmdType="UPDATE" id="eHyHf9wSJUVoO2XgXbOT-10"><mxCell style="swimlane;fontStyle=1;align=center;verticalAlign=top;childLayout=stackLayout;horizontal=1;startSize=60;horizontalStack=0;resizeParent=1;resizeParentMax=0;resizeLast=0;collapsible=1;marginBottom=0;fixDash=1;container=1;enumerate=0;treeMoving=1;swimlaneBody=1;fillOpacity=100;strokeOpacity=100;overflow=visible;rounded=0;swimlaneLine=1;sketch=0;shadow=0;arcSize=9;strokeWidth=1;fillStyle=auto;swimlaneFillColor=default;metaEdit=1;labelPadding=0;cloneable=1;separatorColor=none;swimlaneHead=1;noLabel=0;direction=east;portConstraint=none;portConstraintRotation=0;rotation=0;connectable=0;snapToPoint=0;perimeter=rectanglePerimeter;dropTarget=1;expand=1;part=1;backgroundOutline=1;movableLabel=1;autosize=1;fixedWidth=1;resizable=1;resizeWidth=0;resizeHeight=0;rotatable=1;treeFolding=0;pointerEvents=1;moveCells=0;comic=0;enumerateValue=123;allowArrows=0;fontFamily=Helvetica;fontSize=13;fillColor=#fff2cc;strokeColor=#d6b656;" parent="1" vertex="1"><mxGeometry x="-97.5" y="40" width="350" height="266" as="geometry"><mxRectangle x="-950" y="80" width="350" height="70" as="alternateBounds"/></mxGeometry></mxCell></object><object label="%fieldModify% %fieldName%: %fieldType%    #%fieldDesc%" placeholders="1" shapeType="FIELD" fieldName="id" fieldType="Long" fieldModify="-" fieldDesc="主键" id="eHyHf9wSJUVoO2XgXbOT-11"><mxCell style="text;strokeColor=none;fillColor=none;align=left;verticalAlign=top;spacingLeft=4;spacingRight=4;overflow=hidden;rotatable=0;points=[];portConstraint=none;metaEdit=1;cloneable=1;rotation=0;connectable=1;container=0;dropTarget=1;imageAspect=1;absoluteArcSize=0;portConstraintRotation=0;snapToPoint=0;fixDash=0;pointerEvents=0;enumerate=0;resizeHeight=1;resizeWidth=1;autosize=1;part=1;movable=1;rounded=0;fontFamily=Helvetica;fontSize=13;fontColor=default;comic=1;" parent="eHyHf9wSJUVoO2XgXbOT-10" vertex="1"><mxGeometry y="60" width="350" height="24" as="geometry"/></mxCell></object><object label="%fieldModify% %fieldName%: %fieldType%    #%fieldDesc%" placeholders="1" shapeType="FIELD" fieldName="name" fieldType="String" fieldModify="-" fieldDesc="组织名称" id="eHyHf9wSJUVoO2XgXbOT-12"><mxCell style="text;strokeColor=none;fillColor=none;align=left;verticalAlign=top;spacingLeft=4;spacingRight=4;overflow=hidden;rotatable=0;points=[];portConstraint=none;metaEdit=1;cloneable=1;rotation=0;connectable=1;container=0;dropTarget=1;imageAspect=1;absoluteArcSize=0;portConstraintRotation=0;snapToPoint=0;fixDash=0;pointerEvents=0;enumerate=0;resizeHeight=1;resizeWidth=1;autosize=1;part=1;movable=1;rounded=0;fontFamily=Helvetica;fontSize=13;fontColor=default;comic=1;" parent="eHyHf9wSJUVoO2XgXbOT-10" vertex="1"><mxGeometry y="84" width="350" height="24" as="geometry"/></mxCell></object><object label="%fieldModify% %fieldName%: %fieldType%    #%fieldDesc%" placeholders="1" shapeType="FIELD" fieldName="description" fieldType="String" fieldModify="-" fieldDesc="描述信息" id="eHyHf9wSJUVoO2XgXbOT-13"><mxCell style="text;strokeColor=none;fillColor=none;align=left;verticalAlign=top;spacingLeft=4;spacingRight=4;overflow=hidden;rotatable=0;points=[];portConstraint=none;metaEdit=1;cloneable=1;rotation=0;connectable=1;container=0;dropTarget=1;imageAspect=1;absoluteArcSize=0;portConstraintRotation=0;snapToPoint=0;fixDash=0;pointerEvents=0;enumerate=0;resizeHeight=1;resizeWidth=1;autosize=1;part=1;movable=1;rounded=0;fontFamily=Helvetica;fontSize=13;fontColor=default;comic=1;" parent="eHyHf9wSJUVoO2XgXbOT-10" vertex="1"><mxGeometry y="108" width="350" height="24" as="geometry"/></mxCell></object><object label="%fieldModify% %fieldName%: %fieldType%    #%fieldDesc%" placeholders="1" shapeType="FIELD" fieldName="managerId" fieldType="Long" fieldModify="-" fieldDesc="组织管理员ID" id="eHyHf9wSJUVoO2XgXbOT-14"><mxCell style="text;strokeColor=none;fillColor=none;align=left;verticalAlign=top;spacingLeft=4;spacingRight=4;overflow=hidden;rotatable=0;points=[];portConstraint=none;metaEdit=1;cloneable=1;rotation=0;connectable=1;container=0;dropTarget=1;imageAspect=1;absoluteArcSize=0;portConstraintRotation=0;snapToPoint=0;fixDash=0;pointerEvents=0;enumerate=0;resizeHeight=1;resizeWidth=1;autosize=1;part=1;movable=1;rounded=0;fontFamily=Helvetica;fontSize=13;fontColor=default;comic=1;" parent="eHyHf9wSJUVoO2XgXbOT-10" vertex="1"><mxGeometry y="132" width="350" height="24" as="geometry"/></mxCell></object><object label="《%shapeType%》" placeholders="1" shapeType="RULE_LIST" id="eHyHf9wSJUVoO2XgXbOT-15"><mxCell style="swimlane;fontStyle=1;align=center;verticalAlign=top;childLayout=stackLayout;horizontal=1;startSize=28;horizontalStack=0;resizeParent=1;resizeParentMax=0;resizeLast=0;collapsible=1;marginBottom=0;fixDash=1;container=1;enumerate=0;treeMoving=1;swimlaneBody=1;fillOpacity=100;strokeOpacity=100;overflow=visible;rounded=0;swimlaneLine=1;sketch=0;shadow=0;arcSize=19;strokeWidth=1;fillStyle=auto;swimlaneFillColor=none;metaEdit=1;labelPadding=0;cloneable=1;separatorColor=none;swimlaneHead=1;noLabel=0;direction=east;portConstraint=none;portConstraintRotation=0;rotation=0;connectable=0;snapToPoint=0;perimeter=rectanglePerimeter;dropTarget=1;expand=1;part=1;backgroundOutline=1;movableLabel=1;autosize=1;fixedWidth=0;resizable=1;resizeWidth=0;resizeHeight=0;rotatable=1;treeFolding=0;pointerEvents=1;moveCells=0;comic=0;enumerateValue=123;allowArrows=0;fontFamily=Helvetica;fontSize=13;glass=0;editable=1;movable=1;deletable=1;fillColor=none;strokeColor=#b85450;gradientColor=none;" parent="eHyHf9wSJUVoO2XgXbOT-10" vertex="1"><mxGeometry y="156" width="350" height="58" as="geometry"><mxRectangle y="256" width="420" height="50" as="alternateBounds"/></mxGeometry></mxCell></object><object label="rule: %ruleDesc%" placeholders="1" shapeType="RULE_ITEM" ruleDesc="组织名称唯一" id="eHyHf9wSJUVoO2XgXbOT-16"><mxCell style="text;strokeColor=none;fillColor=none;align=left;verticalAlign=top;spacingLeft=4;spacingRight=4;overflow=hidden;rotatable=0;points=[];portConstraint=none;metaEdit=1;cloneable=1;rotation=0;connectable=1;container=0;dropTarget=1;imageAspect=1;absoluteArcSize=0;portConstraintRotation=0;snapToPoint=0;fixDash=0;pointerEvents=0;enumerate=0;resizeHeight=1;resizeWidth=1;autosize=1;part=1;movable=1;rounded=0;fontFamily=Helvetica;fontSize=13;fontColor=default;" parent="eHyHf9wSJUVoO2XgXbOT-15" vertex="1"><mxGeometry y="28" width="350" height="30" as="geometry"/></mxCell></object><object label="《%shapeType%》" placeholders="1" shapeType="EVENT" id="eHyHf9wSJUVoO2XgXbOT-17"><mxCell style="swimlane;fontStyle=1;align=center;verticalAlign=top;childLayout=stackLayout;horizontal=1;startSize=28;horizontalStack=0;resizeParent=1;resizeParentMax=0;resizeLast=0;collapsible=1;marginBottom=0;fixDash=1;container=1;enumerate=0;treeMoving=1;swimlaneBody=1;fillOpacity=100;strokeOpacity=100;overflow=visible;rounded=0;swimlaneLine=1;sketch=0;shadow=0;arcSize=19;strokeWidth=1;fillStyle=auto;swimlaneFillColor=none;metaEdit=1;labelPadding=0;cloneable=1;separatorColor=none;swimlaneHead=1;noLabel=0;direction=east;portConstraint=none;portConstraintRotation=0;rotation=0;connectable=0;snapToPoint=0;perimeter=rectanglePerimeter;dropTarget=1;expand=1;part=1;backgroundOutline=1;movableLabel=1;autosize=1;fixedWidth=0;resizable=1;resizeWidth=0;resizeHeight=0;rotatable=1;treeFolding=0;pointerEvents=1;moveCells=0;comic=0;enumerateValue=123;allowArrows=0;fontFamily=Helvetica;fontSize=13;glass=0;editable=1;movable=1;deletable=1;fillColor=none;strokeColor=#6c8ebf;gradientColor=#7ea6e0;" parent="eHyHf9wSJUVoO2XgXbOT-10" vertex="1"><mxGeometry y="214" width="350" height="52" as="geometry"><mxRectangle y="204" width="420" height="50" as="alternateBounds"/></mxGeometry></mxCell></object><object label="%nodeDesc%" placeholders="1" nodeDesc="删除组织" shapeType="NODE" id="eHyHf9wSJUVoO2XgXbOT-18"><mxCell style="rounded=0;whiteSpace=wrap;html=1;shadow=0;glass=0;sketch=0;fillStyle=auto;strokeWidth=1;metaEdit=1;resizable=1;rotatable=0;snapToPoint=0;connectable=1;absoluteArcSize=0;noLabel=0;labelPadding=0;allowArrows=1;recursiveResize=1;expand=1;editable=1;movable=1;deletable=1;fixDash=0;collapsible=0;portConstraintRotation=0;points=[[0,0.5,0,0,0],[1,0.5,0,0,0]];backgroundOutline=0;resizeHeight=1;resizeWidth=1;" parent="1" vertex="1"><mxGeometry x="390" y="-50" width="135" height="40" as="geometry"/></mxCell></object><object label="《%shapeType%》&#10;%className%&#10;%classDesc%" placeholders="1" shapeType="COMMAND" classPackage="remove" classDesc="删除组织" className="OrganizationRemove" cmdType="DELETE" id="eHyHf9wSJUVoO2XgXbOT-19"><mxCell style="swimlane;fontStyle=1;align=center;verticalAlign=top;childLayout=stackLayout;horizontal=1;startSize=60;horizontalStack=0;resizeParent=1;resizeParentMax=0;resizeLast=0;collapsible=1;marginBottom=0;fixDash=1;container=1;enumerate=0;treeMoving=1;swimlaneBody=1;fillOpacity=100;strokeOpacity=100;overflow=visible;rounded=0;swimlaneLine=1;sketch=0;shadow=0;arcSize=9;strokeWidth=1;fillStyle=auto;swimlaneFillColor=default;metaEdit=1;labelPadding=0;cloneable=1;separatorColor=none;swimlaneHead=1;noLabel=0;direction=east;portConstraint=none;portConstraintRotation=0;rotation=0;connectable=0;snapToPoint=0;perimeter=rectanglePerimeter;dropTarget=1;expand=1;part=1;backgroundOutline=1;movableLabel=1;autosize=1;fixedWidth=1;resizable=1;resizeWidth=0;resizeHeight=0;rotatable=1;treeFolding=0;pointerEvents=1;moveCells=0;comic=0;enumerateValue=123;allowArrows=0;fontFamily=Helvetica;fontSize=13;fillColor=#fff2cc;strokeColor=#d6b656;" parent="1" vertex="1"><mxGeometry x="282.5" y="40" width="350" height="266" as="geometry"><mxRectangle x="-950" y="80" width="350" height="70" as="alternateBounds"/></mxGeometry></mxCell></object><object label="%fieldModify% %fieldName%: %fieldType%    #%fieldDesc%" placeholders="1" shapeType="FIELD" fieldName="id" fieldType="Long" fieldModify="-" fieldDesc="主键" id="eHyHf9wSJUVoO2XgXbOT-20"><mxCell style="text;strokeColor=none;fillColor=none;align=left;verticalAlign=top;spacingLeft=4;spacingRight=4;overflow=hidden;rotatable=0;points=[];portConstraint=none;metaEdit=1;cloneable=1;rotation=0;connectable=1;container=0;dropTarget=1;imageAspect=1;absoluteArcSize=0;portConstraintRotation=0;snapToPoint=0;fixDash=0;pointerEvents=0;enumerate=0;resizeHeight=1;resizeWidth=1;autosize=1;part=1;movable=1;rounded=0;fontFamily=Helvetica;fontSize=13;fontColor=default;comic=1;" parent="eHyHf9wSJUVoO2XgXbOT-19" vertex="1"><mxGeometry y="60" width="350" height="24" as="geometry"/></mxCell></object><object label="%fieldModify% %fieldName%: %fieldType%    #%fieldDesc%" placeholders="1" shapeType="FIELD" fieldName="name" fieldType="String" fieldModify="-" fieldDesc="组织名称" id="eHyHf9wSJUVoO2XgXbOT-21"><mxCell style="text;strokeColor=none;fillColor=none;align=left;verticalAlign=top;spacingLeft=4;spacingRight=4;overflow=hidden;rotatable=0;points=[];portConstraint=none;metaEdit=1;cloneable=1;rotation=0;connectable=1;container=0;dropTarget=1;imageAspect=1;absoluteArcSize=0;portConstraintRotation=0;snapToPoint=0;fixDash=0;pointerEvents=0;enumerate=0;resizeHeight=1;resizeWidth=1;autosize=1;part=1;movable=1;rounded=0;fontFamily=Helvetica;fontSize=13;fontColor=default;comic=1;" parent="eHyHf9wSJUVoO2XgXbOT-19" vertex="1"><mxGeometry y="84" width="350" height="24" as="geometry"/></mxCell></object><object label="%fieldModify% %fieldName%: %fieldType%    #%fieldDesc%" placeholders="1" shapeType="FIELD" fieldName="description" fieldType="String" fieldModify="-" fieldDesc="描述信息" id="eHyHf9wSJUVoO2XgXbOT-22"><mxCell style="text;strokeColor=none;fillColor=none;align=left;verticalAlign=top;spacingLeft=4;spacingRight=4;overflow=hidden;rotatable=0;points=[];portConstraint=none;metaEdit=1;cloneable=1;rotation=0;connectable=1;container=0;dropTarget=1;imageAspect=1;absoluteArcSize=0;portConstraintRotation=0;snapToPoint=0;fixDash=0;pointerEvents=0;enumerate=0;resizeHeight=1;resizeWidth=1;autosize=1;part=1;movable=1;rounded=0;fontFamily=Helvetica;fontSize=13;fontColor=default;comic=1;" parent="eHyHf9wSJUVoO2XgXbOT-19" vertex="1"><mxGeometry y="108" width="350" height="24" as="geometry"/></mxCell></object><object label="%fieldModify% %fieldName%: %fieldType%    #%fieldDesc%" placeholders="1" shapeType="FIELD" fieldName="managerId" fieldType="Long" fieldModify="-" fieldDesc="组织管理员ID" id="eHyHf9wSJUVoO2XgXbOT-23"><mxCell style="text;strokeColor=none;fillColor=none;align=left;verticalAlign=top;spacingLeft=4;spacingRight=4;overflow=hidden;rotatable=0;points=[];portConstraint=none;metaEdit=1;cloneable=1;rotation=0;connectable=1;container=0;dropTarget=1;imageAspect=1;absoluteArcSize=0;portConstraintRotation=0;snapToPoint=0;fixDash=0;pointerEvents=0;enumerate=0;resizeHeight=1;resizeWidth=1;autosize=1;part=1;movable=1;rounded=0;fontFamily=Helvetica;fontSize=13;fontColor=default;comic=1;" parent="eHyHf9wSJUVoO2XgXbOT-19" vertex="1"><mxGeometry y="132" width="350" height="24" as="geometry"/></mxCell></object><object label="《%shapeType%》" placeholders="1" shapeType="RULE_LIST" id="eHyHf9wSJUVoO2XgXbOT-24"><mxCell style="swimlane;fontStyle=1;align=center;verticalAlign=top;childLayout=stackLayout;horizontal=1;startSize=28;horizontalStack=0;resizeParent=1;resizeParentMax=0;resizeLast=0;collapsible=1;marginBottom=0;fixDash=1;container=1;enumerate=0;treeMoving=1;swimlaneBody=1;fillOpacity=100;strokeOpacity=100;overflow=visible;rounded=0;swimlaneLine=1;sketch=0;shadow=0;arcSize=19;strokeWidth=1;fillStyle=auto;swimlaneFillColor=none;metaEdit=1;labelPadding=0;cloneable=1;separatorColor=none;swimlaneHead=1;noLabel=0;direction=east;portConstraint=none;portConstraintRotation=0;rotation=0;connectable=0;snapToPoint=0;perimeter=rectanglePerimeter;dropTarget=1;expand=1;part=1;backgroundOutline=1;movableLabel=1;autosize=1;fixedWidth=0;resizable=1;resizeWidth=0;resizeHeight=0;rotatable=1;treeFolding=0;pointerEvents=1;moveCells=0;comic=0;enumerateValue=123;allowArrows=0;fontFamily=Helvetica;fontSize=13;glass=0;editable=1;movable=1;deletable=1;fillColor=none;strokeColor=#b85450;gradientColor=none;" parent="eHyHf9wSJUVoO2XgXbOT-19" vertex="1"><mxGeometry y="156" width="350" height="58" as="geometry"><mxRectangle y="256" width="420" height="50" as="alternateBounds"/></mxGeometry></mxCell></object><object label="rule: %ruleDesc%" placeholders="1" shapeType="RULE_ITEM" ruleDesc="组织下关联了团队，不允许删除" id="eHyHf9wSJUVoO2XgXbOT-25"><mxCell style="text;strokeColor=none;fillColor=none;align=left;verticalAlign=top;spacingLeft=4;spacingRight=4;overflow=hidden;rotatable=0;points=[];portConstraint=none;metaEdit=1;cloneable=1;rotation=0;connectable=1;container=0;dropTarget=1;imageAspect=1;absoluteArcSize=0;portConstraintRotation=0;snapToPoint=0;fixDash=0;pointerEvents=0;enumerate=0;resizeHeight=1;resizeWidth=1;autosize=1;part=1;movable=1;rounded=0;fontFamily=Helvetica;fontSize=13;fontColor=default;" parent="eHyHf9wSJUVoO2XgXbOT-24" vertex="1"><mxGeometry y="28" width="350" height="30" as="geometry"/></mxCell></object><object label="《%shapeType%》" placeholders="1" shapeType="EVENT" id="eHyHf9wSJUVoO2XgXbOT-26"><mxCell style="swimlane;fontStyle=1;align=center;verticalAlign=top;childLayout=stackLayout;horizontal=1;startSize=28;horizontalStack=0;resizeParent=1;resizeParentMax=0;resizeLast=0;collapsible=1;marginBottom=0;fixDash=1;container=1;enumerate=0;treeMoving=1;swimlaneBody=1;fillOpacity=100;strokeOpacity=100;overflow=visible;rounded=0;swimlaneLine=1;sketch=0;shadow=0;arcSize=19;strokeWidth=1;fillStyle=auto;swimlaneFillColor=none;metaEdit=1;labelPadding=0;cloneable=1;separatorColor=none;swimlaneHead=1;noLabel=0;direction=east;portConstraint=none;portConstraintRotation=0;rotation=0;connectable=0;snapToPoint=0;perimeter=rectanglePerimeter;dropTarget=1;expand=1;part=1;backgroundOutline=1;movableLabel=1;autosize=1;fixedWidth=0;resizable=1;resizeWidth=0;resizeHeight=0;rotatable=1;treeFolding=0;pointerEvents=1;moveCells=0;comic=0;enumerateValue=123;allowArrows=0;fontFamily=Helvetica;fontSize=13;glass=0;editable=1;movable=1;deletable=1;fillColor=none;strokeColor=#6c8ebf;gradientColor=#7ea6e0;" parent="eHyHf9wSJUVoO2XgXbOT-19" vertex="1"><mxGeometry y="214" width="350" height="52" as="geometry"><mxRectangle y="204" width="420" height="50" as="alternateBounds"/></mxGeometry></mxCell></object><object label="《%shapeType%》&#10;%className%&#10;%classDesc%" placeholders="1" shapeType="AGGREGATION" className="Organization" classDesc="组织" id="eHyHf9wSJUVoO2XgXbOT-27"><mxCell style="swimlane;fontStyle=3;align=center;verticalAlign=top;childLayout=stackLayout;horizontal=1;startSize=55;horizontalStack=0;resizeParent=1;resizeParentMax=0;resizeLast=0;collapsible=1;marginBottom=0;fixDash=1;container=1;enumerate=0;treeMoving=1;swimlaneBody=1;fillOpacity=100;strokeOpacity=100;overflow=visible;rounded=1;swimlaneLine=1;sketch=0;shadow=0;arcSize=7;fillColor=#fff2cc;strokeColor=#d6b656;strokeWidth=1;fillStyle=auto;swimlaneFillColor=default;metaEdit=1;labelPadding=0;cloneable=1;separatorColor=none;swimlaneHead=1;noLabel=0;direction=east;portConstraint=none;portConstraintRotation=0;rotation=0;connectable=1;snapToPoint=0;perimeter=rectanglePerimeter;dropTarget=1;expand=1;part=1;backgroundOutline=1;movableLabel=1;autosize=1;fixedWidth=0;resizable=1;resizeWidth=0;resizeHeight=0;rotatable=1;treeFolding=0;pointerEvents=1;moveCells=0;comic=0;enumerateValue=123;allowArrows=0;glass=0;fontFamily=Helvetica;fontSize=13;fontColor=default;" parent="1" vertex="1"><mxGeometry x="-470" y="490" width="343" height="135" as="geometry"><mxRectangle x="70" y="410" width="250" height="50" as="alternateBounds"/></mxGeometry></mxCell></object><object label="%fieldModify% %fieldName%: %fieldType%    #%fieldDesc%" placeholders="1" shapeType="FIELD" fieldName="managerId" fieldType="Long" fieldModify="-" fieldDesc="组织管理员ID" id="eHyHf9wSJUVoO2XgXbOT-28"><mxCell style="text;strokeColor=none;fillColor=none;align=left;verticalAlign=top;spacingLeft=4;spacingRight=4;overflow=hidden;rotatable=0;points=[];portConstraint=none;metaEdit=1;cloneable=1;rotation=0;connectable=1;container=0;dropTarget=1;imageAspect=1;absoluteArcSize=0;portConstraintRotation=0;snapToPoint=0;fixDash=0;pointerEvents=0;enumerate=0;resizeHeight=1;resizeWidth=1;autosize=1;part=1;movable=1;rounded=0;fontFamily=Helvetica;fontSize=13;fontColor=default;comic=1;" parent="eHyHf9wSJUVoO2XgXbOT-27" vertex="1"><mxGeometry y="55" width="343" height="24" as="geometry"/></mxCell></object><object label="%fieldModify% %fieldName%: %fieldType%    #%fieldDesc%" placeholders="1" shapeType="FIELD" fieldName="description" fieldType="String" fieldModify="-" fieldDesc="描述信息" id="eHyHf9wSJUVoO2XgXbOT-29"><mxCell style="text;strokeColor=none;fillColor=none;align=left;verticalAlign=top;spacingLeft=4;spacingRight=4;overflow=hidden;rotatable=0;points=[];portConstraint=none;metaEdit=1;cloneable=1;rotation=0;connectable=1;container=0;dropTarget=1;imageAspect=1;absoluteArcSize=0;portConstraintRotation=0;snapToPoint=0;fixDash=0;pointerEvents=0;enumerate=0;resizeHeight=1;resizeWidth=1;autosize=1;part=1;movable=1;rounded=0;fontFamily=Helvetica;fontSize=13;fontColor=default;comic=1;" parent="eHyHf9wSJUVoO2XgXbOT-27" vertex="1"><mxGeometry y="79" width="343" height="24" as="geometry"/></mxCell></object><object label="%fieldModify% %fieldName%: %fieldType%    #%fieldDesc%" placeholders="1" shapeType="FIELD" fieldName="name" fieldType="String" fieldModify="-" fieldDesc="组织名称" id="eHyHf9wSJUVoO2XgXbOT-30"><mxCell style="text;strokeColor=none;fillColor=none;align=left;verticalAlign=top;spacingLeft=4;spacingRight=4;overflow=hidden;rotatable=0;points=[];portConstraint=none;metaEdit=1;cloneable=1;rotation=0;connectable=1;container=0;dropTarget=1;imageAspect=1;absoluteArcSize=0;portConstraintRotation=0;snapToPoint=0;fixDash=0;pointerEvents=0;enumerate=0;resizeHeight=1;resizeWidth=1;autosize=1;part=1;movable=1;rounded=0;fontFamily=Helvetica;fontSize=13;fontColor=default;comic=1;" parent="eHyHf9wSJUVoO2XgXbOT-27" vertex="1"><mxGeometry y="103" width="343" height="24" as="geometry"/></mxCell></object><mxCell id="eHyHf9wSJUVoO2XgXbOT-31" value="" style="line;strokeWidth=1;fillColor=none;align=left;verticalAlign=middle;spacingTop=-1;spacingLeft=3;spacingRight=3;rotatable=0;labelPosition=right;points=[];portConstraint=eastwest;cloneable=1;rounded=0;part=1;fontFamily=Helvetica;fontSize=13;fontColor=default;" parent="eHyHf9wSJUVoO2XgXbOT-27" vertex="1"><mxGeometry y="127" width="343" height="8" as="geometry"/></mxCell><object label="%nodeDesc%" placeholders="1" nodeDesc="组织管理-分页查询组织信息" shapeType="NODE" id="eHyHf9wSJUVoO2XgXbOT-32"><mxCell style="rounded=0;whiteSpace=wrap;html=1;shadow=0;glass=0;sketch=0;fillStyle=auto;strokeWidth=1;metaEdit=1;resizable=1;rotatable=0;snapToPoint=0;connectable=1;absoluteArcSize=0;noLabel=0;labelPadding=0;allowArrows=1;recursiveResize=1;expand=1;editable=1;movable=1;deletable=1;fixDash=0;collapsible=0;portConstraintRotation=0;points=[[0,0.5,0,0,0],[1,0.5,0,0,0]];backgroundOutline=0;resizeHeight=1;resizeWidth=1;" parent="1" vertex="1"><mxGeometry x="-421.12" y="770" width="210" height="40" as="geometry"/></mxCell></object><object label="《%shapeType%》&#10;%className%&#10;%classDesc%&#10;%queryResultType%" placeholders="1" shapeType="PAGE_QUERY" className="OrganizationPageQuery" classDesc="分页查询组织信息" queryResultType="OrganizationDTO" id="eHyHf9wSJUVoO2XgXbOT-33"><mxCell style="swimlane;fontStyle=1;align=center;verticalAlign=top;childLayout=stackLayout;horizontal=1;startSize=80;horizontalStack=0;resizeParent=1;resizeParentMax=0;resizeLast=0;collapsible=1;marginBottom=0;fixDash=1;container=1;enumerate=0;treeMoving=1;swimlaneBody=1;fillOpacity=100;strokeOpacity=100;overflow=visible;rounded=0;swimlaneLine=1;sketch=0;shadow=0;arcSize=3;strokeWidth=1;fillStyle=auto;swimlaneFillColor=none;metaEdit=1;labelPadding=0;cloneable=1;separatorColor=none;swimlaneHead=1;noLabel=0;direction=east;portConstraint=none;portConstraintRotation=0;rotation=0;connectable=1;snapToPoint=0;perimeter=rectanglePerimeter;dropTarget=1;expand=1;part=1;backgroundOutline=1;movableLabel=1;autosize=1;fixedWidth=0;resizable=1;resizeWidth=0;resizeHeight=0;rotatable=1;treeFolding=0;pointerEvents=1;moveCells=0;comic=0;enumerateValue=123;allowArrows=0;fontFamily=Helvetica;fontSize=13;fillColor=#fff2cc;strokeColor=#d6b656;" parent="1" vertex="1"><mxGeometry x="-461.13" y="840" width="317.24999999999955" height="104" as="geometry"><mxRectangle y="28" width="250" height="50" as="alternateBounds"/></mxGeometry></mxCell></object><object label="%fieldModify% %fieldName%: %fieldType%    #%fieldDesc%" placeholders="1" shapeType="FIELD" fieldName="name" fieldType="String" fieldModify="-" fieldDesc="组织名称" id="eHyHf9wSJUVoO2XgXbOT-34"><mxCell style="text;strokeColor=none;fillColor=none;align=left;verticalAlign=top;spacingLeft=4;spacingRight=4;overflow=hidden;rotatable=0;points=[];portConstraint=none;metaEdit=1;cloneable=1;rotation=0;connectable=1;container=0;dropTarget=1;imageAspect=1;absoluteArcSize=0;portConstraintRotation=0;snapToPoint=0;fixDash=0;pointerEvents=0;enumerate=0;resizeHeight=1;resizeWidth=1;autosize=1;part=1;movable=1;rounded=0;fontFamily=Helvetica;fontSize=13;fontColor=default;comic=1;" parent="eHyHf9wSJUVoO2XgXbOT-33" vertex="1"><mxGeometry y="80" width="317.24999999999955" height="24" as="geometry"/></mxCell></object><object label="《%shapeType%》&#10;%className%&#10;%classDesc%" placeholders="1" shapeType="QUERY_RESULT" className="OrganizationDTO" classDesc="组织信息" id="eHyHf9wSJUVoO2XgXbOT-35"><mxCell style="swimlane;fontStyle=3;align=center;verticalAlign=top;childLayout=stackLayout;horizontal=1;startSize=55;horizontalStack=0;resizeParent=1;resizeParentMax=0;resizeLast=0;collapsible=1;marginBottom=0;fixDash=1;container=1;enumerate=0;treeMoving=1;swimlaneBody=1;fillOpacity=100;strokeOpacity=100;overflow=visible;rounded=1;swimlaneLine=1;sketch=0;shadow=0;arcSize=12;strokeWidth=1;fillStyle=auto;swimlaneFillColor=none;metaEdit=1;labelPadding=0;cloneable=1;separatorColor=none;swimlaneHead=1;noLabel=0;direction=east;portConstraint=none;portConstraintRotation=0;rotation=0;connectable=1;snapToPoint=0;perimeter=rectanglePerimeter;dropTarget=1;expand=1;part=1;backgroundOutline=1;movableLabel=1;autosize=1;fixedWidth=0;resizable=1;resizeWidth=0;resizeHeight=0;rotatable=1;treeFolding=0;pointerEvents=1;moveCells=0;comic=0;enumerateValue=123;allowArrows=0;glass=0;fontFamily=Helvetica;fontSize=13;fillColor=#fff2cc;strokeColor=#d6b656;" parent="1" vertex="1"><mxGeometry x="-467" y="1030" width="330" height="127" as="geometry"><mxRectangle x="70" y="410" width="250" height="50" as="alternateBounds"/></mxGeometry></mxCell></object><object label="%fieldModify% %fieldName%: %fieldType%    #%fieldDesc%" placeholders="1" shapeType="FIELD" fieldName="managerId" fieldType="Long" fieldModify="-" fieldDesc="组织管理员ID" id="eHyHf9wSJUVoO2XgXbOT-36"><mxCell style="text;strokeColor=none;fillColor=none;align=left;verticalAlign=top;spacingLeft=4;spacingRight=4;overflow=hidden;rotatable=0;points=[];portConstraint=none;metaEdit=1;cloneable=1;rotation=0;connectable=1;container=0;dropTarget=1;imageAspect=1;absoluteArcSize=0;portConstraintRotation=0;snapToPoint=0;fixDash=0;pointerEvents=0;enumerate=0;resizeHeight=1;resizeWidth=1;autosize=1;part=1;movable=1;rounded=0;fontFamily=Helvetica;fontSize=13;fontColor=default;comic=1;" parent="eHyHf9wSJUVoO2XgXbOT-35" vertex="1"><mxGeometry y="55" width="330" height="24" as="geometry"/></mxCell></object><object label="%fieldModify% %fieldName%: %fieldType%    #%fieldDesc%" placeholders="1" shapeType="FIELD" fieldName="name" fieldType="String" fieldModify="-" fieldDesc="组织名称" id="eHyHf9wSJUVoO2XgXbOT-37"><mxCell style="text;strokeColor=none;fillColor=none;align=left;verticalAlign=top;spacingLeft=4;spacingRight=4;overflow=hidden;rotatable=0;points=[];portConstraint=none;metaEdit=1;cloneable=1;rotation=0;connectable=1;container=0;dropTarget=1;imageAspect=1;absoluteArcSize=0;portConstraintRotation=0;snapToPoint=0;fixDash=0;pointerEvents=0;enumerate=0;resizeHeight=1;resizeWidth=1;autosize=1;part=1;movable=1;rounded=0;fontFamily=Helvetica;fontSize=13;fontColor=default;comic=1;" parent="eHyHf9wSJUVoO2XgXbOT-35" vertex="1"><mxGeometry y="79" width="330" height="24" as="geometry"/></mxCell></object><object label="%fieldModify% %fieldName%: %fieldType%    #%fieldDesc%" placeholders="1" shapeType="FIELD" fieldName="description" fieldType="String" fieldModify="-" fieldDesc="描述信息" id="eHyHf9wSJUVoO2XgXbOT-38"><mxCell style="text;strokeColor=none;fillColor=none;align=left;verticalAlign=top;spacingLeft=4;spacingRight=4;overflow=hidden;rotatable=0;points=[];portConstraint=none;metaEdit=1;cloneable=1;rotation=0;connectable=1;container=0;dropTarget=1;imageAspect=1;absoluteArcSize=0;portConstraintRotation=0;snapToPoint=0;fixDash=0;pointerEvents=0;enumerate=0;resizeHeight=1;resizeWidth=1;autosize=1;part=1;movable=1;rounded=0;fontFamily=Helvetica;fontSize=13;fontColor=default;comic=1;" parent="eHyHf9wSJUVoO2XgXbOT-35" vertex="1"><mxGeometry y="103" width="330" height="24" as="geometry"/></mxCell></object></root></mxGraphModel></diagram></mxfile>